<?xml version="1.0" encoding="UTF-8" standalone="no"?>
<!-- Created with Inkscape (http://www.inkscape.org/) -->

<svg
   width="4.7624803mm"
   height="5.0204701mm"
   viewBox="0 0 4.7624803 5.0204701"
   version="1.1"
   id="svg21"
   xml:space="preserve"
   xmlns="http://www.w3.org/2000/svg"
   xmlns:svg="http://www.w3.org/2000/svg"><defs
     id="defs18" /><g
     id="layer1"
     transform="translate(-0.07785946,-0.08203356)"><path
       d="m 1.8720179,4.2976232 q -0.095088,0 -0.1616501,-0.066562 -0.066562,-0.066562 -0.066562,-0.1616498 V 3.0044237 q 0,-0.095088 0.066562,-0.1616499 0.066562,-0.066562 0.1616501,-0.066562 h 0.8367769 v 1.217129 H 1.8720179 q -0.032331,0 -0.054202,0.021871 -0.02188,0.021871 -0.02188,0.054201 0,0.03233 0.02188,0.0542 0.02188,0.021871 0.054202,0.021871 h 0.988916 V 2.9283532 H 3.013076 v 1.36927 z M 2.1002295,3.8411999 H 2.5566527 V 2.9283532 H 2.1002295 Z m -0.1521421,0 V 2.9283532 h -0.076069 q -0.032331,0 -0.054202,0.021871 -0.02188,0.021871 -0.02188,0.0542 v 0.8500884 q 0.019005,-0.0057 0.037083,-0.00951 0.018055,-0.0038 0.038986,-0.0038 z M 1.7959483,2.9283532 v 0.9261591 z"
       id="path226"
       style="stroke-width:0.00190176" /><path
       d="m 1.4007795,4.5733435 h 1.8520803 v -2.64584 H 2.7236895 q -0.1852,0 -0.30427,0.0926 -0.11906,0.0926 -0.28442,0.27119 -0.1323,0.14553 -0.30758,0.30097 -0.17529,0.15544 -0.42664,0.2282 z m -0.52917002,0.52916 v -2.28864 q -0.34396002,-0.0926 -0.56885002,-0.37042 -0.2249,-0.27781 -0.2249,-0.64823 0,-0.35057 0.20175,-0.62177 0.20174,-0.27119994 0.51924002,-0.37702994 0.15214,-0.3175 0.45310002,-0.51594 0.30096,-0.19844 0.67799,-0.19844 0.23151,0 0.43326,0.0794 0.20174,0.0794 0.36711,0.21167 0.0661,-0.0132 0.12568,-0.0232 0.0595,-0.01 0.13229,-0.01 0.4365603,0 0.7474503,0.31089 0.31088,0.31088 0.31088,0.74744994 0,0.14552 -0.0364,0.27781 -0.0364,0.13229 -0.10914,0.25135 h 0.4101 q 0.21829,0 0.37373,0.15545 0.15544,0.15544 0.15544,0.37372 v 1.5875 q 0,0.21828 -0.15544,0.37372 -0.15544,0.15545 -0.37373,0.15545 h -0.52916 v 0.52916 z m -0.26458002,-3.30729 q 0,0.21828 0.15544002,0.37372 0.15544,0.15545 0.37372002,0.15545 0.21167,0 0.3605,-0.13891 0.14883,-0.13891 0.30758,-0.31088 0.16536,-0.1786 0.37372,-0.32743 0.20836,-0.14882 0.5457,-0.14882 h 0.7937503 q 0,-0.21829 -0.15544,-0.3737299 -0.15544,-0.15544004 -0.3737203,-0.15544004 -0.16537,0 -0.27782,0.043 l -0.11244,0.043 -0.20506,-0.17198 q -0.0728,-0.0595 -0.18851,-0.11576 -0.11576,-0.0562 -0.27451,-0.0562 -0.21166,0 -0.38695,0.11245 -0.17529,0.11245 -0.26789,0.30427004 l -0.0926,0.1984399 -0.21167002,0.0728 q -0.16537,0.0529 -0.26458,0.18851 -0.0992,0.1356 -0.0992,0.30758 z m 3.17500034,2.24896 h 0.52916 v -1.5875 h -0.52916 z m -2.3812503,0.52917 h 1.8520803 z"
       id="path235"
       style="stroke-width:0.00661458" /></g></svg>
